Coordinates
version=1
nRows=22
nColumns=24
inDegrees=yes

Units are S.I. units (second, meters, Newtons, ...)
Angles are in degrees.

endheader
time	pelvis_tilt	pelvis_list	pelvis_rotation	pelvis_tx	pelvis_ty	pelvis_tz	hip_flexion_r	hip_adduction_r	hip_rotation_r	knee_angle_r	ankle_angle_r	subtalar_angle_r	mtp_angle_r	hip_flexion_l	hip_adduction_l	hip_rotation_l	knee_angle_l	ankle_angle_l	subtalar_angle_l	mtp_angle_l	lumbar_extension	lumbar_bending	lumbar_rotation
      3.78000000	     -8.53989857	     -2.72725124	     12.17583837	     -1.40313085	     -0.04663699	      0.56688562	     36.18845986	     -4.17650972	    -25.37667830	    -13.84342479	     -0.89151454	      5.24995256	      3.28368802	     -8.92490518	     -1.22508610	     10.54246632	    -11.27162263	     16.71757003	     15.08396660	      0.47019013	      6.02240792	      0.50215893	    -16.85729049
      3.78500000	     -8.56233948	     -3.05038310	     12.25056821	     -1.39567891	     -0.04781432	      0.56704583	     36.19484155	     -3.84636448	    -25.31091151	    -14.31010638	     -1.54376485	      4.91528730	      3.06729545	     -8.95159253	     -1.70588862	      9.99462041	    -11.98088707	     16.88541711	     16.08322125	      0.75690124	      6.20131807	      0.89223901	    -16.97724289
      3.79000000	     -8.61133672	     -3.37112684	     12.25430106	     -1.38816596	     -0.04898563	      0.56726971	     36.26129660	     -3.50523767	    -25.24141191	    -14.84023133	     -2.35799370	      4.48974567	      3.08290950	     -8.96640548	     -2.16648511	      9.49500478	    -12.67683216	     16.95650857	     16.91000620	      1.05716917	      6.41390919	      1.28630154	    -16.99303933
      3.79500000	     -8.68201114	     -3.74872979	     12.26955495	     -1.38060393	     -0.05007496	      0.56743664	     36.33804215	     -3.13202900	    -25.12687865	    -15.35089119	     -3.31084267	      4.00770080	      3.12666755	     -8.91640976	     -2.67835133	      9.06352359	    -13.42999182	     16.95687888	     17.66215391	      1.35360461	      6.67529043	      1.74328545	    -17.01388982
      3.80000000	     -8.71898049	     -4.08445976	     12.19746398	     -1.37311921	     -0.05111529	      0.56778263	     36.44432619	     -2.74907605	    -24.93388024	    -15.96933008	     -4.37146494	      3.22187580	      3.19875854	     -8.86891221	     -3.16228887	      8.35402860	    -14.25787890	     16.92826338	     18.66805871	      1.77095716	      6.86496669	      2.16874679	    -16.94432668
      3.80500000	     -8.78333974	     -4.47780860	     12.13674728	     -1.36558999	     -0.05206237	      0.56807550	     36.57893359	     -2.33383607	    -24.69941642	    -16.59440174	     -5.46701584	      2.36683634	      3.16876863	     -8.74688061	     -3.69847689	      7.73611118	    -15.14689317	     16.80108114	     19.57046918	      2.22480400	      7.10894946	      2.65699915	    -16.88347263
      3.81000000	     -8.84704323	     -4.87994413	     12.02986090	     -1.35805877	     -0.05292770	      0.56843331	     36.74127699	     -1.88647496	    -24.36649126	    -17.27692123	     -6.54579942	      1.36187465	      3.03366073	     -8.58643797	     -4.24976949	      7.02271705	    -16.10735081	     16.58490221	     20.55172401	      2.77093268	      7.34977140	      3.16121163	    -16.75536089
      3.81500000	     -8.91310810	     -5.28634994	     11.87943539	     -1.35052851	     -0.05370395	      0.56885716	     36.93082981	     -1.40987944	    -23.94321373	    -18.01880824	     -7.55140395	      0.24899026	      2.78842230	     -8.38290013	     -4.81353220	      6.24579521	    -17.14123140	     16.25000235	     21.60498685	      3.46242197	      7.58771995	      3.67662389	    -16.54489839
      3.82000000	     -8.97970826	     -5.70030406	     11.70926946	     -1.34300697	     -0.05439981	      0.56930235	     37.13953866	     -0.90966383	    -23.44181758	    -18.81825195	     -8.41513830	     -0.94832343	      2.43073682	     -8.12257846	     -5.39274595	      5.41802949	    -18.27478245	     15.78649274	     22.65865478	      4.27354771	      7.82495951	      4.20381462	    -16.34104028
      3.82500000	     -9.04902900	     -6.11240719	     11.49067511	     -1.33549234	     -0.05502266	      0.56981784	     37.37083596	     -0.37505030	    -22.86292636	    -19.67554381	     -9.13260770	     -2.16872151	      1.99107129	     -7.82099279	     -5.98230134	      4.54110349	    -19.48059301	     15.18336210	     23.76432170	      5.27691238	      8.05437795	      4.73759427	    -16.07978402
      3.83000000	     -9.08241463	     -6.49025556	     11.29632467	     -1.32804481	     -0.05547880	      0.57035119	     37.55797942	      0.14075548	    -22.24287485	    -20.56395190	     -9.65314268	     -3.36527016	      1.44254707	     -7.50133444	     -6.56544804	      3.67777378	    -20.73637362	     14.27993152	     24.82440685	      6.89582153	      8.22623366	      5.23256467	    -15.85985677
      3.83500000	     -9.17020923	     -6.90823530	     11.00646987	     -1.32050893	     -0.05595303	      0.57096621	     37.80205035	      0.75311278	    -21.58344580	    -21.44626763	    -10.04705980	     -4.53556753	      1.04543776	     -7.08521602	     -7.18377037	      2.78049898	    -22.13641971	     13.37986158	     25.93557515	      7.93022585	      8.46945416	      5.77962383	    -15.50596656
      3.84000000	     -9.18593818	     -7.25403523	     10.74572589	     -1.31309809	     -0.05623357	      0.57164712	     37.94192208	      1.33603834	    -20.84628164	    -22.31351359	    -10.24809208	     -5.68766651	      0.64335796	     -6.69331063	     -7.77130932	      1.90152191	    -23.56488225	     12.12266021	     26.98705634	      9.73182754	      8.59435730	      6.24800805	    -15.21276658
      3.84500000	     -9.23493320	     -7.61642823	     10.48152301	     -1.30570516	     -0.05644419	      0.57232999	     38.08472767	      1.94401079	    -20.17221291	    -23.12479582	    -10.37258784	     -6.77055703	      0.38032026	     -6.19737039	     -8.38565125	      1.08974273	    -25.11262129	     10.72838577	     28.01936868	     11.30278210	      8.75790856	      6.72803795	    -14.91050089
      3.85000000	     -9.27817771	     -7.95675998	     10.21128528	     -1.29834772	     -0.05654582	      0.57304505	     38.17704787	      2.55727831	    -19.51847507	    -23.87133247	    -10.38233385	     -7.75377906	      0.23400748	     -5.65241941	     -8.99924380	      0.31000820	    -26.73781218	      9.11572349	     29.01481257	     12.88548524	      8.90223899	      7.18152402	    -14.62303421
      3.85500000	     -9.29156789	     -8.26484145	      9.93091684	     -1.29106074	     -0.05657861	      0.57376763	     38.20077806	      3.15252120	    -18.93652020	    -24.57792222	    -10.19881950	     -8.49624970	      0.26385667	     -5.08879922	     -9.59940036	     -0.44614904	    -28.41912163	      7.30319669	     29.88092558	     14.71324294	      8.99150636	      7.60961292	    -14.28751373
      3.86000000	     -9.33930309	     -8.58880086	      9.64941987	     -1.28373157	     -0.05654212	      0.57453024	     38.19778732	      3.78536716	    -18.38226697	    -25.17591831	     -9.96957659	     -9.27334820	      0.28026430	     -4.43131690	    -10.22129286	     -1.10260398	    -30.20603886	      5.43001023	     30.65023947	     15.78313215	      9.13620561	      8.03579471	    -14.00795470
      3.86500000	     -9.33551355	     -8.83393047	      9.38399713	     -1.27668946	     -0.05632490	      0.57532714	     38.09461785	      4.35742091	    -17.83471220	    -25.69138182	     -9.73006683	     -9.97097606	      0.38942172	     -3.76034163	    -10.77597707	     -1.65867631	    -32.00336771	      3.28971007	     31.23279772	     17.35948422	      9.15570076	      8.39008647	    -13.69064275
      3.87000000	     -9.34244161	     -9.09421029	      9.12858772	     -1.26961558	     -0.05606343	      0.57607139	     37.94421664	      4.92470724	    -17.41227781	    -26.12514526	     -9.34811800	    -10.45049510	      0.56833415	     -3.02130011	    -11.34470338	     -2.14604609	    -33.86463816	      1.12889521	     31.59079221	     18.50326973	      9.20600339	      8.75295301	    -13.40730604
      3.87500000	     -9.34610553	     -9.33610525	      8.89299259	     -1.26257527	     -0.05568088	      0.57679549	     37.72481205	      5.46855362	    -17.05247667	    -26.45684661	     -8.91459297	    -10.85269943	      0.75914434	     -2.23519217	    -11.88697630	     -2.51679097	    -35.74166681	     -1.08392311	     31.72107375	     19.38207190	      9.25397614	      9.08900925	    -13.15580161
      3.88000000	     -9.31770663	     -9.57523449	      8.68056846	     -1.25574259	     -0.05523166	      0.57748559	     37.43969263	      5.98025768	    -16.80290273	    -26.73060936	     -8.39725036	    -10.95217187	      0.96709777	     -1.38939558	    -12.42575087	     -2.79223550	    -37.72369278	     -3.14710066	     31.71399080	     19.70644307	      9.23669017	      9.42785513	    -12.88569195
      3.88500000	     -9.33566728	     -9.80532103	      8.49907342	     -1.24896707	     -0.05476792	      0.57826661	     37.15149521	      6.48791585	    -16.55253737	    -26.89827954	     -7.91584597	    -11.29582875	      1.19297765	     -0.42530474	    -12.95913931	     -3.02074957	    -39.69195024	     -5.25782737	     31.37700858	     20.43129709	      9.27396361	      9.71771289	    -12.70099380
